# xmcd CD database file
#
# Track frame offsets:
#	150
#	11889
#	29923
#	43015
#	62997
#	80286
#	96714
#	110347
#	121717
#	130697
#	146092
#	159211
#	171915
#	185939
#	201390
#	223228
#	241933
#	253473
#	268892
#	280626
#
# Disc length: 3909 seconds
#
# Revision: 3
# Processed by: cddbd v1.4PL0 Copyright (c) Steve Scherf et al.
# Submitted via: CDex 1.50Beta7
#
DISCID=3e0f4314
DTITLE=Various Artist - Images of Ireland
DYEAR=1900
DGENRE=Country
TTITLE0=Rosemary Woods - Slievenamon
TTITLE1=Pat Ely - Any Tipperary Town
TTITLE2=Sean Dynes - Paddy's Green Shamrock Shore
TTITLE3=Kathy Durkin - Workingman
TTITLE4=Eileen Donaghy - McCarthy's Party
TTITLE5=Blackthorn - She Moved Through The Fair
TTITLE6=Aran Folk - Wild Rover
TTITLE7=Hugo Duncan - Sweet Eileen O'Grady
TTITLE8=Leo McCaffrey - Typical Irishman
TTITLE9=Larry Cunningham - Doonaree
TTITLE10=Leon McCaffrey - Ireland Mother Ireland
TTITLE11=Margo - The Girl From Donegal
TTITLE12=John Kerr - Village Where I Went To School
TTITLE13=Brian Coll - These Are My Mountains
TTITLE14=Pat Woods - The Blacksmith
TTITLE15=Hugo Duncan - Three Leaf Shamrock
TTITLE16=Connie Foley - Boys From County Armagh
TTITLE17=Ann Breen - Bunch of Violets Blue
TTITLE18=Teamwork - Sunset Years of My Life
TTITLE19=Joe E. Hamilton - Love The Dearest
EXTD=
EXTT0=
EXTT1=
EXTT2=
EXTT3=
EXTT4=
EXTT5=
EXTT6=
EXTT7=
EXTT8=
EXTT9=
EXTT10=
EXTT11=
EXTT12=
EXTT13=
EXTT14=
EXTT15=
EXTT16=
EXTT17=
EXTT18=
EXTT19=
PLAYORDER=
